<svg width="27" height="15" viewBox="0 0 27 15" fill="none" xmlns="http://www.w3.org/2000/svg">
<path d="M26 6.36401C26.5523 6.36401 27 6.81173 27 7.36401C27 7.9163 26.5523 8.36401 26 8.36401V7.36401V6.36401ZM0.292892 8.07112C-0.0976315 7.6806 -0.0976315 7.04743 0.292892 6.65691L6.65685 0.292946C7.04738 -0.0975785 7.68054 -0.0975785 8.07107 0.292946C8.46159 0.68347 8.46159 1.31664 8.07107 1.70716L2.41421 7.36401L8.07107 13.0209C8.46159 13.4114 8.46159 14.0446 8.07107 14.4351C7.68054 14.8256 7.04738 14.8256 6.65685 14.4351L0.292892 8.07112ZM26 7.36401V8.36401H1V7.36401V6.36401H26V7.36401Z" fill="#037A72"/>
</svg>
